<mxfile host="Electron" agent="Mozilla/5.0 (X11; Linux x86_64) AppleWebKit/537.36 (KHTML, like Gecko) draw.io/24.7.17 Chrome/128.0.6613.36 Electron/32.0.1 Safari/537.36" version="24.7.17">
  <diagram name="Seite-1" id="LUTr41OnP3hK2mQ3qZlB">
    <mxGraphModel dx="1687" dy="1034" grid="1" gridSize="10" guides="1" tooltips="1" connect="1" arrows="1" fold="1" page="1" pageScale="1" pageWidth="827" pageHeight="1169" math="0" shadow="0">
      <root>
        <mxCell id="0" />
        <mxCell id="1" parent="0" />
        <mxCell id="OaMGyYvNy3UWJGjDZcQR-107" value="" style="rounded=0;whiteSpace=wrap;html=1;" parent="1" vertex="1">
          <mxGeometry x="100" y="180" width="1160" height="520" as="geometry" />
        </mxCell>
        <mxCell id="OaMGyYvNy3UWJGjDZcQR-19" value="" style="rounded=0;whiteSpace=wrap;html=1;" parent="1" vertex="1">
          <mxGeometry x="680" y="520" width="360" height="150" as="geometry" />
        </mxCell>
        <mxCell id="OaMGyYvNy3UWJGjDZcQR-65" value="" style="rounded=0;whiteSpace=wrap;html=1;fillColor=#dae8fc;strokeColor=#6c8ebf;" parent="1" vertex="1">
          <mxGeometry x="700" y="520" width="120" height="120" as="geometry" />
        </mxCell>
        <mxCell id="OaMGyYvNy3UWJGjDZcQR-15" value="" style="rounded=0;whiteSpace=wrap;html=1;" parent="1" vertex="1">
          <mxGeometry x="680" y="210" width="360" height="270" as="geometry" />
        </mxCell>
        <mxCell id="OaMGyYvNy3UWJGjDZcQR-51" value="" style="rounded=0;whiteSpace=wrap;html=1;fillColor=#dae8fc;strokeColor=#6c8ebf;" parent="1" vertex="1">
          <mxGeometry x="680" y="210" width="100" height="100" as="geometry" />
        </mxCell>
        <mxCell id="05BCGsYqmBWEbDrXtsvU-86" value="" style="rounded=0;whiteSpace=wrap;html=1;" parent="1" vertex="1">
          <mxGeometry x="240" y="210" width="360" height="150" as="geometry" />
        </mxCell>
        <mxCell id="05BCGsYqmBWEbDrXtsvU-70" value="" style="rounded=0;whiteSpace=wrap;html=1;fillColor=#f8cecc;strokeColor=#b85450;" parent="1" vertex="1">
          <mxGeometry x="480" y="210" width="120" height="100" as="geometry" />
        </mxCell>
        <mxCell id="05BCGsYqmBWEbDrXtsvU-71" value="" style="rounded=0;whiteSpace=wrap;html=1;fillColor=#dae8fc;strokeColor=#6c8ebf;" parent="1" vertex="1">
          <mxGeometry x="240" y="260" width="80" height="50" as="geometry" />
        </mxCell>
        <mxCell id="05BCGsYqmBWEbDrXtsvU-87" value="rxd_async" style="text;strokeColor=none;align=left;fillColor=none;html=1;verticalAlign=middle;whiteSpace=wrap;rounded=0;" parent="1" vertex="1">
          <mxGeometry x="240" y="270" width="70" height="30" as="geometry" />
        </mxCell>
        <mxCell id="05BCGsYqmBWEbDrXtsvU-90" value="enable_destuffing" style="text;strokeColor=none;align=right;fillColor=none;html=1;verticalAlign=middle;whiteSpace=wrap;rounded=0;" parent="1" vertex="1">
          <mxGeometry x="490" y="225" width="110" height="25" as="geometry" />
        </mxCell>
        <mxCell id="05BCGsYqmBWEbDrXtsvU-91" value="sample" style="text;strokeColor=none;align=right;fillColor=none;html=1;verticalAlign=middle;whiteSpace=wrap;rounded=0;" parent="1" vertex="1">
          <mxGeometry x="545" y="250" width="55" height="20" as="geometry" />
        </mxCell>
        <mxCell id="05BCGsYqmBWEbDrXtsvU-92" value="rxd" style="text;strokeColor=none;align=right;fillColor=none;html=1;verticalAlign=middle;whiteSpace=wrap;rounded=0;" parent="1" vertex="1">
          <mxGeometry x="560" y="270" width="37.5" height="20" as="geometry" />
        </mxCell>
        <mxCell id="05BCGsYqmBWEbDrXtsvU-93" value="Input Module" style="rounded=0;whiteSpace=wrap;html=1;fillColor=#f5f5f5;fontColor=#333333;strokeColor=#666666;" parent="1" vertex="1">
          <mxGeometry x="340" y="220" width="120" height="130" as="geometry" />
        </mxCell>
        <mxCell id="OaMGyYvNy3UWJGjDZcQR-4" value="sample" style="text;strokeColor=none;align=left;fillColor=none;html=1;verticalAlign=middle;whiteSpace=wrap;rounded=0;rotation=0;" parent="1" vertex="1">
          <mxGeometry x="680" y="250" width="60" height="20" as="geometry" />
        </mxCell>
        <mxCell id="OaMGyYvNy3UWJGjDZcQR-6" value="Processing Module" style="rounded=0;whiteSpace=wrap;html=1;fillColor=#f5f5f5;fontColor=#333333;strokeColor=#666666;" parent="1" vertex="1">
          <mxGeometry x="830" y="227.5" width="120" height="135" as="geometry" />
        </mxCell>
        <mxCell id="OaMGyYvNy3UWJGjDZcQR-7" value="" style="rounded=0;whiteSpace=wrap;html=1;fillColor=#f8cecc;strokeColor=#b85450;" parent="1" vertex="1">
          <mxGeometry x="960" y="350" width="80" height="40" as="geometry" />
        </mxCell>
        <mxCell id="OaMGyYvNy3UWJGjDZcQR-12" value="can_frame" style="text;strokeColor=none;align=right;fillColor=none;html=1;verticalAlign=middle;whiteSpace=wrap;rounded=0;" parent="1" vertex="1">
          <mxGeometry x="922.5" y="360" width="115" height="20" as="geometry" />
        </mxCell>
        <mxCell id="OaMGyYvNy3UWJGjDZcQR-25" value="Handling Module" style="rounded=0;whiteSpace=wrap;html=1;fillColor=#f5f5f5;fontColor=#333333;strokeColor=#666666;" parent="1" vertex="1">
          <mxGeometry x="850" y="620" width="100" height="40" as="geometry" />
        </mxCell>
        <mxCell id="OaMGyYvNy3UWJGjDZcQR-26" value="" style="rounded=0;whiteSpace=wrap;html=1;fillColor=#f8cecc;strokeColor=#b85450;" parent="1" vertex="1">
          <mxGeometry x="940" y="540" width="100" height="60" as="geometry" />
        </mxCell>
        <mxCell id="OaMGyYvNy3UWJGjDZcQR-27" value="error_codes" style="text;strokeColor=none;align=right;fillColor=none;html=1;verticalAlign=middle;whiteSpace=wrap;rounded=0;" parent="1" vertex="1">
          <mxGeometry x="957.5" y="550" width="80" height="20" as="geometry" />
        </mxCell>
        <mxCell id="OaMGyYvNy3UWJGjDZcQR-52" value="enable_destuffing" style="text;strokeColor=none;align=left;fillColor=none;html=1;verticalAlign=middle;whiteSpace=wrap;rounded=0;rotation=0;" parent="1" vertex="1">
          <mxGeometry x="680" y="227.5" width="100" height="20" as="geometry" />
        </mxCell>
        <mxCell id="OaMGyYvNy3UWJGjDZcQR-54" value="rxd" style="text;strokeColor=none;align=left;fillColor=none;html=1;verticalAlign=middle;whiteSpace=wrap;rounded=0;rotation=0;" parent="1" vertex="1">
          <mxGeometry x="680" y="270" width="40" height="20" as="geometry" />
        </mxCell>
        <mxCell id="OaMGyYvNy3UWJGjDZcQR-58" value="" style="rounded=0;whiteSpace=wrap;html=1;fillColor=#f8cecc;strokeColor=#b85450;" parent="1" vertex="1">
          <mxGeometry x="680" y="320" width="100" height="30" as="geometry" />
        </mxCell>
        <mxCell id="OaMGyYvNy3UWJGjDZcQR-59" value="" style="rounded=0;whiteSpace=wrap;html=1;fillColor=#dae8fc;strokeColor=#6c8ebf;" parent="1" vertex="1">
          <mxGeometry x="480" y="320" width="120" height="30" as="geometry" />
        </mxCell>
        <mxCell id="OaMGyYvNy3UWJGjDZcQR-60" value="frame_finished" style="text;strokeColor=none;align=right;fillColor=none;html=1;verticalAlign=middle;whiteSpace=wrap;rounded=0;" parent="1" vertex="1">
          <mxGeometry x="510" y="320" width="90" height="30" as="geometry" />
        </mxCell>
        <mxCell id="OaMGyYvNy3UWJGjDZcQR-61" value="frame_finished" style="text;strokeColor=none;align=right;fillColor=none;html=1;verticalAlign=middle;whiteSpace=wrap;rounded=0;" parent="1" vertex="1">
          <mxGeometry x="675" y="325" width="90" height="20" as="geometry" />
        </mxCell>
        <mxCell id="OaMGyYvNy3UWJGjDZcQR-62" value="" style="endArrow=classic;html=1;rounded=0;" parent="1" edge="1">
          <mxGeometry width="50" height="50" relative="1" as="geometry">
            <mxPoint x="680" y="335" as="sourcePoint" />
            <mxPoint x="600" y="334.76" as="targetPoint" />
          </mxGeometry>
        </mxCell>
        <mxCell id="OaMGyYvNy3UWJGjDZcQR-64" value="" style="rounded=0;whiteSpace=wrap;html=1;fillColor=#f8cecc;strokeColor=#b85450;" parent="1" vertex="1">
          <mxGeometry x="700" y="360" width="120" height="120" as="geometry" />
        </mxCell>
        <mxCell id="OaMGyYvNy3UWJGjDZcQR-71" value="+" style="ellipse;whiteSpace=wrap;html=1;aspect=fixed;fillColor=#f5f5f5;fontColor=#333333;strokeColor=#666666;" parent="1" vertex="1">
          <mxGeometry x="1060" y="480" width="40" height="40" as="geometry" />
        </mxCell>
        <mxCell id="OaMGyYvNy3UWJGjDZcQR-74" value="" style="rounded=0;whiteSpace=wrap;html=1;fillColor=#f8cecc;strokeColor=#b85450;" parent="1" vertex="1">
          <mxGeometry x="890" y="520" width="20" height="40" as="geometry" />
        </mxCell>
        <mxCell id="OaMGyYvNy3UWJGjDZcQR-47" value="reset" style="text;strokeColor=none;align=right;fillColor=none;html=1;verticalAlign=middle;whiteSpace=wrap;rounded=0;rotation=-90;" parent="1" vertex="1">
          <mxGeometry x="880" y="530" width="40" height="20" as="geometry" />
        </mxCell>
        <mxCell id="OaMGyYvNy3UWJGjDZcQR-75" value="" style="rounded=0;whiteSpace=wrap;html=1;fillColor=#dae8fc;strokeColor=#6c8ebf;" parent="1" vertex="1">
          <mxGeometry x="890" y="440" width="20" height="40" as="geometry" />
        </mxCell>
        <mxCell id="OaMGyYvNy3UWJGjDZcQR-14" value="reset" style="text;strokeColor=none;align=left;fillColor=none;html=1;verticalAlign=middle;whiteSpace=wrap;rounded=0;rotation=-90;" parent="1" vertex="1">
          <mxGeometry x="880" y="450" width="40" height="20" as="geometry" />
        </mxCell>
        <mxCell id="OaMGyYvNy3UWJGjDZcQR-76" value="" style="endArrow=classic;html=1;rounded=0;" parent="1" edge="1">
          <mxGeometry width="50" height="50" relative="1" as="geometry">
            <mxPoint x="900" y="520" as="sourcePoint" />
            <mxPoint x="899.71" y="480" as="targetPoint" />
          </mxGeometry>
        </mxCell>
        <mxCell id="OaMGyYvNy3UWJGjDZcQR-83" value="decode_singals" style="text;strokeColor=none;align=right;fillColor=none;html=1;verticalAlign=middle;whiteSpace=wrap;rounded=0;rotation=90;" parent="1" vertex="1">
          <mxGeometry x="676.25" y="423.75" width="87.5" height="20" as="geometry" />
        </mxCell>
        <mxCell id="OaMGyYvNy3UWJGjDZcQR-86" value="" style="endArrow=classic;html=1;rounded=0;entryX=0.5;entryY=0;entryDx=0;entryDy=0;" parent="1" target="OaMGyYvNy3UWJGjDZcQR-71" edge="1">
          <mxGeometry width="50" height="50" relative="1" as="geometry">
            <mxPoint x="1040" y="370" as="sourcePoint" />
            <mxPoint x="1100" y="480" as="targetPoint" />
            <Array as="points">
              <mxPoint x="1080" y="370" />
            </Array>
          </mxGeometry>
        </mxCell>
        <mxCell id="OaMGyYvNy3UWJGjDZcQR-87" value="" style="endArrow=classic;html=1;rounded=0;exitX=1.01;exitY=0.334;exitDx=0;exitDy=0;entryX=0.5;entryY=1;entryDx=0;entryDy=0;exitPerimeter=0;" parent="1" target="OaMGyYvNy3UWJGjDZcQR-71" edge="1" source="OaMGyYvNy3UWJGjDZcQR-26">
          <mxGeometry width="50" height="50" relative="1" as="geometry">
            <mxPoint x="1040" y="637.32" as="sourcePoint" />
            <mxPoint x="1100" y="570" as="targetPoint" />
            <Array as="points">
              <mxPoint x="1080" y="560" />
            </Array>
          </mxGeometry>
        </mxCell>
        <mxCell id="OaMGyYvNy3UWJGjDZcQR-95" value="" style="endArrow=classic;html=1;rounded=0;exitX=1.001;exitY=0.3;exitDx=0;exitDy=0;exitPerimeter=0;" parent="1" source="05BCGsYqmBWEbDrXtsvU-70" edge="1">
          <mxGeometry width="50" height="50" relative="1" as="geometry">
            <mxPoint x="602.5" y="234.89999999999995" as="sourcePoint" />
            <mxPoint x="680" y="240" as="targetPoint" />
          </mxGeometry>
        </mxCell>
        <mxCell id="OaMGyYvNy3UWJGjDZcQR-97" value="" style="endArrow=classic;html=1;rounded=0;exitX=1.001;exitY=0.3;exitDx=0;exitDy=0;exitPerimeter=0;" parent="1" edge="1">
          <mxGeometry width="50" height="50" relative="1" as="geometry">
            <mxPoint x="600" y="259.84" as="sourcePoint" />
            <mxPoint x="680" y="260" as="targetPoint" />
          </mxGeometry>
        </mxCell>
        <mxCell id="OaMGyYvNy3UWJGjDZcQR-98" value="" style="endArrow=classic;html=1;rounded=0;exitX=1.001;exitY=0.3;exitDx=0;exitDy=0;exitPerimeter=0;" parent="1" edge="1">
          <mxGeometry width="50" height="50" relative="1" as="geometry">
            <mxPoint x="600" y="280" as="sourcePoint" />
            <mxPoint x="680" y="280" as="targetPoint" />
          </mxGeometry>
        </mxCell>
        <mxCell id="OaMGyYvNy3UWJGjDZcQR-101" value="" style="rounded=0;whiteSpace=wrap;html=1;fillColor=#dae8fc;strokeColor=#6c8ebf;" parent="1" vertex="1">
          <mxGeometry x="120" y="200" width="40" height="480" as="geometry" />
        </mxCell>
        <mxCell id="OaMGyYvNy3UWJGjDZcQR-103" value="" style="endArrow=classic;html=1;rounded=0;" parent="1" edge="1">
          <mxGeometry width="50" height="50" relative="1" as="geometry">
            <mxPoint x="160" y="287.33" as="sourcePoint" />
            <mxPoint x="240" y="287.33" as="targetPoint" />
          </mxGeometry>
        </mxCell>
        <mxCell id="OaMGyYvNy3UWJGjDZcQR-105" value="" style="endArrow=classic;html=1;rounded=0;entryX=0;entryY=0.738;entryDx=0;entryDy=0;entryPerimeter=0;" parent="1" edge="1">
          <mxGeometry width="50" height="50" relative="1" as="geometry">
            <mxPoint x="1040" y="584" as="sourcePoint" />
            <mxPoint x="1200" y="583.76" as="targetPoint" />
          </mxGeometry>
        </mxCell>
        <mxCell id="MYjQbFKHRXR6wOAkbtgJ-1" value="error_signals" style="text;strokeColor=none;align=right;fillColor=none;html=1;verticalAlign=middle;whiteSpace=wrap;rounded=0;rotation=90;" vertex="1" parent="1">
          <mxGeometry x="696.25" y="423.75" width="87.5" height="20" as="geometry" />
        </mxCell>
        <mxCell id="MYjQbFKHRXR6wOAkbtgJ-2" value="crc_signals" style="text;strokeColor=none;align=right;fillColor=none;html=1;verticalAlign=middle;whiteSpace=wrap;rounded=0;rotation=90;" vertex="1" parent="1">
          <mxGeometry x="720" y="423.75" width="87.5" height="20" as="geometry" />
        </mxCell>
        <mxCell id="MYjQbFKHRXR6wOAkbtgJ-3" value="sof" style="text;strokeColor=none;align=right;fillColor=none;html=1;verticalAlign=middle;whiteSpace=wrap;rounded=0;rotation=90;" vertex="1" parent="1">
          <mxGeometry x="740" y="423.75" width="87.5" height="20" as="geometry" />
        </mxCell>
        <mxCell id="MYjQbFKHRXR6wOAkbtgJ-4" value="frame_valid" style="text;strokeColor=none;align=right;fillColor=none;html=1;verticalAlign=middle;whiteSpace=wrap;rounded=0;rotation=90;" vertex="1" parent="1">
          <mxGeometry x="760" y="423.75" width="87.5" height="20" as="geometry" />
        </mxCell>
        <mxCell id="MYjQbFKHRXR6wOAkbtgJ-5" value="" style="endArrow=classic;html=1;rounded=0;" edge="1" parent="1">
          <mxGeometry width="50" height="50" relative="1" as="geometry">
            <mxPoint x="719.9599999999999" y="480" as="sourcePoint" />
            <mxPoint x="719.67" y="520" as="targetPoint" />
          </mxGeometry>
        </mxCell>
        <mxCell id="MYjQbFKHRXR6wOAkbtgJ-6" value="" style="endArrow=classic;html=1;rounded=0;" edge="1" parent="1">
          <mxGeometry width="50" height="50" relative="1" as="geometry">
            <mxPoint x="739.9999999999999" y="480" as="sourcePoint" />
            <mxPoint x="739.7099999999999" y="520" as="targetPoint" />
          </mxGeometry>
        </mxCell>
        <mxCell id="MYjQbFKHRXR6wOAkbtgJ-7" value="" style="endArrow=classic;html=1;rounded=0;" edge="1" parent="1">
          <mxGeometry width="50" height="50" relative="1" as="geometry">
            <mxPoint x="760.2899999999998" y="480" as="sourcePoint" />
            <mxPoint x="759.9999999999999" y="520" as="targetPoint" />
          </mxGeometry>
        </mxCell>
        <mxCell id="MYjQbFKHRXR6wOAkbtgJ-8" value="" style="endArrow=classic;html=1;rounded=0;" edge="1" parent="1">
          <mxGeometry width="50" height="50" relative="1" as="geometry">
            <mxPoint x="779.9999999999999" y="480" as="sourcePoint" />
            <mxPoint x="779.7099999999999" y="520" as="targetPoint" />
          </mxGeometry>
        </mxCell>
        <mxCell id="MYjQbFKHRXR6wOAkbtgJ-9" value="" style="endArrow=classic;html=1;rounded=0;" edge="1" parent="1">
          <mxGeometry width="50" height="50" relative="1" as="geometry">
            <mxPoint x="800.2899999999998" y="480" as="sourcePoint" />
            <mxPoint x="799.9999999999999" y="520" as="targetPoint" />
          </mxGeometry>
        </mxCell>
        <mxCell id="MYjQbFKHRXR6wOAkbtgJ-10" value="frame_valid" style="text;strokeColor=none;align=left;fillColor=none;html=1;verticalAlign=middle;whiteSpace=wrap;rounded=0;rotation=90;" vertex="1" parent="1">
          <mxGeometry x="760" y="560" width="87.5" height="20" as="geometry" />
        </mxCell>
        <mxCell id="MYjQbFKHRXR6wOAkbtgJ-11" value="sof" style="text;strokeColor=none;align=left;fillColor=none;html=1;verticalAlign=middle;whiteSpace=wrap;rounded=0;rotation=90;" vertex="1" parent="1">
          <mxGeometry x="740" y="560" width="87.5" height="20" as="geometry" />
        </mxCell>
        <mxCell id="MYjQbFKHRXR6wOAkbtgJ-12" value="crc_signals" style="text;strokeColor=none;align=left;fillColor=none;html=1;verticalAlign=middle;whiteSpace=wrap;rounded=0;rotation=90;" vertex="1" parent="1">
          <mxGeometry x="720" y="560" width="87.5" height="20" as="geometry" />
        </mxCell>
        <mxCell id="MYjQbFKHRXR6wOAkbtgJ-13" value="error_signals" style="text;strokeColor=none;align=left;fillColor=none;html=1;verticalAlign=middle;whiteSpace=wrap;rounded=0;rotation=90;" vertex="1" parent="1">
          <mxGeometry x="696.25" y="560" width="87.5" height="20" as="geometry" />
        </mxCell>
        <mxCell id="MYjQbFKHRXR6wOAkbtgJ-14" value="decode_signals" style="text;strokeColor=none;align=left;fillColor=none;html=1;verticalAlign=middle;whiteSpace=wrap;rounded=0;rotation=90;" vertex="1" parent="1">
          <mxGeometry x="677.5" y="560" width="87.5" height="20" as="geometry" />
        </mxCell>
        <mxCell id="MYjQbFKHRXR6wOAkbtgJ-15" value="can_frame_valid" style="text;strokeColor=none;align=right;fillColor=none;html=1;verticalAlign=middle;whiteSpace=wrap;rounded=0;" vertex="1" parent="1">
          <mxGeometry x="925" y="570" width="115" height="20" as="geometry" />
        </mxCell>
        <mxCell id="MYjQbFKHRXR6wOAkbtgJ-16" value="" style="endArrow=classic;html=1;rounded=0;entryX=0;entryY=0.577;entryDx=0;entryDy=0;entryPerimeter=0;" edge="1" parent="1">
          <mxGeometry width="50" height="50" relative="1" as="geometry">
            <mxPoint x="1100" y="500" as="sourcePoint" />
            <mxPoint x="1200" y="500.03999999999996" as="targetPoint" />
          </mxGeometry>
        </mxCell>
        <mxCell id="MYjQbFKHRXR6wOAkbtgJ-17" value="can_frame" style="edgeLabel;html=1;align=center;verticalAlign=middle;resizable=0;points=[];" vertex="1" connectable="0" parent="MYjQbFKHRXR6wOAkbtgJ-16">
          <mxGeometry x="-0.2429" relative="1" as="geometry">
            <mxPoint as="offset" />
          </mxGeometry>
        </mxCell>
        <mxCell id="MYjQbFKHRXR6wOAkbtgJ-18" value="" style="rounded=0;whiteSpace=wrap;html=1;fillColor=#f8cecc;strokeColor=#b85450;" vertex="1" parent="1">
          <mxGeometry x="1200" y="200" width="40" height="480" as="geometry" />
        </mxCell>
      </root>
    </mxGraphModel>
  </diagram>
</mxfile>
